<?xml version="1.0" standalone="no"?>
<!DOCTYPE svg PUBLIC "-//W3C//DTD SVG 20010904//EN"
 "http://www.w3.org/TR/2001/REC-SVG-20010904/DTD/svg10.dtd">
<svg version="1.0" xmlns="http://www.w3.org/2000/svg"
 width="1024.000000pt" height="1024.000000pt" viewBox="0 0 1024.000000 1024.000000"
 preserveAspectRatio="xMidYMid meet">
<metadata>
Created by potrace 1.14, written by Peter Selinger 2001-2017
</metadata>
<g transform="translate(0.000000,1024.000000) scale(0.100000,-0.100000)"
fill="#000000" stroke="none">
<path d="M0 5120 l0 -5120 4720 0 4720 0 0 80 0 80 320 0 320 0 0 -80 0 -80
80 0 80 0 0 5120 0 5120 -5120 0 -5120 0 0 -5120z m2095 4941 c105 -60 98
-232 -11 -277 -74 -31 -164 -1 -191 64 -18 44 -12 142 12 179 39 59 122 74
190 34z m1485 -1190 c354 -54 543 -131 785 -321 110 -87 272 -268 306 -342 7
-16 16 -28 21 -28 15 0 135 -260 167 -362 30 -94 71 -349 71 -443 0 -70 -37
-335 -56 -403 -20 -72 -66 -205 -74 -212 -3 -3 -16 -30 -29 -60 -13 -30 -27
-62 -32 -70 -5 -8 -18 -31 -28 -51 -11 -19 -27 -41 -36 -49 -9 -7 -28 -34 -43
-59 -25 -45 -215 -241 -232 -241 -5 0 -30 -19 -55 -42 -47 -43 -214 -124 -349
-169 -116 -40 -307 -54 -451 -34 -74 10 -276 69 -301 87 -7 5 -39 19 -71 32
-33 13 -88 42 -123 65 -35 23 -81 51 -101 62 -21 10 -62 39 -92 63 -29 24 -65
49 -78 56 -13 7 -44 33 -69 56 -25 24 -60 54 -77 67 -29 21 -90 78 -173 160
-82 80 -184 199 -297 346 -40 51 -134 194 -155 235 -42 82 -99 234 -118 314
-25 103 -26 262 -4 369 20 96 92 260 146 333 23 30 47 61 53 69 39 55 238 238
307 283 109 72 311 174 378 193 14 4 39 13 55 20 17 7 48 16 70 20 22 3 65 13
95 21 87 24 287 52 380 53 47 0 141 -8 210 -18z m-934 -2590 c38 -32 83 -65
100 -74 17 -9 45 -30 64 -47 18 -17 66 -47 107 -67 40 -20 76 -40 79 -45 7
-11 -42 -65 -67 -73 -9 -3 -23 -19 -29 -36 -7 -17 -20 -38 -29 -47 -21 -21
-19 -121 4 -182 13 -34 18 -89 22 -220 4 -151 2 -188 -16 -273 -19 -91 -60
-198 -93 -241 -14 -17 -16 -16 -40 25 -14 24 -42 78 -64 119 -21 41 -44 81
-51 88 -7 7 -13 17 -13 22 0 5 -6 15 -13 22 -7 7 -27 47 -45 89 -18 41 -43 87
-55 101 -73 84 -91 101 -122 114 -85 35 -180 7 -242 -71 -50 -63 -67 -121 -61
-209 4 -73 27 -113 121 -208 28 -29 93 -98 142 -152 50 -54 117 -127 149 -162
49 -53 56 -64 38 -64 -44 0 -70 -21 -77 -62 -4 -22 -13 -42 -21 -45 -8 -3 -49
9 -92 26 -205 85 -358 110 -556 94 -132 -11 -146 -19 -146 -79 0 -58 47 -83
128 -68 83 16 270 8 347 -13 133 -38 310 -106 414 -159 57 -30 109 -54 115
-54 6 0 29 -15 51 -34 22 -19 64 -54 94 -78 30 -24 63 -60 74 -80 10 -21 22
-38 27 -38 15 0 78 -118 103 -195 40 -123 57 -217 57 -320 0 -111 -24 -283
-51 -368 -33 -105 -34 -104 79 -112 249 -18 463 -87 604 -195 14 -11 30 -20
35 -20 4 0 33 -24 63 -52 178 -170 270 -360 270 -560 0 -51 -4 -99 -9 -107 -9
-15 -336 -13 -1303 5 l-348 7 -2 476 -3 475 -70 17 c-88 21 -141 37 -287 88
-131 45 -179 67 -251 117 -27 19 -54 34 -60 34 -5 0 -34 21 -63 48 -30 26 -82
72 -117 102 -35 30 -81 79 -103 109 -21 29 -58 77 -80 105 -39 48 -85 152
-121 271 -10 34 -15 98 -16 195 -1 150 6 192 64 380 11 36 25 81 31 100 6 19
21 58 33 85 12 28 33 73 45 100 68 152 92 200 115 227 13 16 29 46 35 66 6 20
29 62 50 92 22 30 48 68 57 84 17 28 48 71 106 152 15 22 38 53 50 71 20 29
112 144 162 201 11 13 74 79 140 146 117 119 181 178 355 326 47 40 87 77 88
81 7 19 31 7 98 -50z m413 -745 c6 -7 33 -21 59 -31 26 -10 74 -36 108 -57 34
-21 65 -38 71 -38 5 0 22 -13 38 -30 16 -16 34 -30 40 -30 6 0 31 -15 57 -32
25 -18 88 -62 140 -97 51 -35 100 -71 109 -81 8 -10 35 -28 60 -40 24 -13 64
-38 89 -57 25 -19 66 -49 92 -66 122 -82 256 -179 281 -203 16 -14 53 -35 84
-46 50 -17 63 -18 127 -7 39 6 125 29 191 51 233 77 446 84 572 21 l53 -27
-33 -18 c-38 -19 -97 -103 -97 -137 0 -12 18 -53 39 -89 48 -83 76 -192 68
-270 -8 -84 -46 -190 -79 -221 -16 -14 -49 -47 -75 -73 -25 -27 -54 -48 -62
-48 -9 0 -32 -8 -51 -19 -48 -25 -198 -61 -258 -61 -57 0 -189 32 -251 61 -47
22 -152 117 -181 164 -10 17 -28 71 -40 120 -21 82 -22 105 -17 262 l6 171
-37 22 c-20 12 -43 31 -50 41 -8 11 -37 33 -65 50 -29 16 -83 52 -122 80 -38
28 -90 61 -115 74 -25 13 -69 42 -99 64 -30 23 -61 41 -69 41 -8 0 -53 26
-101 58 -47 32 -111 68 -141 82 -30 13 -62 30 -70 36 -20 17 -103 53 -165 71
-27 8 -67 24 -87 34 l-37 19 -3 135 c-2 74 0 135 3 135 4 0 12 -6 18 -14z
m-693 -138 c17 -18 41 -55 54 -83 12 -27 47 -90 77 -139 30 -49 64 -110 75
-135 10 -25 27 -55 37 -66 10 -11 43 -60 74 -110 30 -49 67 -105 82 -122 34
-42 75 -102 75 -111 0 -16 135 -167 198 -221 73 -63 190 -132 268 -157 31 -10
113 -19 229 -24 214 -10 228 -14 337 -112 61 -55 84 -85 112 -142 43 -89 60
-163 51 -224 -13 -90 -42 -122 -129 -147 -72 -21 -151 -16 -248 14 l-67 21 -6
55 c-9 69 3 87 54 83 32 -3 40 -9 68 -58 68 -119 64 -115 113 -115 l45 0 3 53
c4 62 -26 166 -66 226 -39 63 -112 136 -157 158 -48 24 -149 33 -228 20 -34
-5 -60 -5 -63 0 -3 5 -14 6 -24 3 -10 -3 -21 -1 -25 5 -3 5 -14 10 -23 10 -18
0 -138 59 -243 118 -90 51 -206 180 -263 292 -26 52 -52 100 -56 105 -4 6 -13
29 -19 52 -15 56 -157 268 -212 318 -24 22 -55 56 -69 76 -14 20 -41 50 -60
65 -19 16 -39 35 -44 42 -4 8 -30 39 -57 68 -56 62 -62 97 -28 154 43 70 87
79 135 28z m5190 -2178 c70 -19 104 -38 139 -76 6 -6 20 -16 33 -23 32 -17 27
-35 -15 -63 -88 -57 -149 -73 -278 -73 -130 0 -224 10 -239 25 -6 6 -16 10
-24 10 -8 0 -43 14 -79 31 -51 24 -62 33 -53 44 26 31 154 108 207 125 84 26
212 26 309 0z m-5631 -90 c38 -11 90 -30 115 -41 25 -12 80 -30 123 -40 43 -9
82 -20 85 -24 4 -4 7 -194 7 -422 l0 -416 -265 8 c-146 4 -281 9 -300 10 -19
2 -161 6 -315 10 -154 4 -305 9 -335 10 -30 2 -84 3 -119 4 l-64 1 6 88 c5 59
17 114 37 172 17 47 35 100 40 118 4 19 17 44 27 55 11 12 28 36 38 52 65 105
267 283 341 301 16 4 34 10 39 14 19 14 179 68 250 84 179 41 198 42 290 16z
m5093 -189 c76 -43 165 -69 267 -81 201 -22 317 -6 458 64 80 40 88 42 97 26
17 -32 32 -164 27 -240 -6 -95 -24 -146 -84 -232 -37 -54 -66 -82 -129 -124
-46 -31 -104 -61 -135 -69 -61 -17 -176 -19 -229 -6 -19 5 -47 12 -62 15 -15
3 -33 12 -40 19 -7 7 -38 29 -68 49 -73 47 -145 152 -171 245 -12 43 -19 100
-19 159 0 88 16 204 29 204 3 0 30 -13 59 -29z"/>
<path d="M3657 8425 c-38 -8 -88 -25 -112 -39 -69 -41 -175 -137 -203 -186
-14 -25 -29 -47 -33 -50 -3 -3 -17 -25 -30 -49 -13 -24 -29 -53 -36 -65 -21
-37 -72 -251 -89 -373 -19 -137 -14 -413 10 -548 21 -117 73 -303 100 -360 13
-27 41 -86 62 -129 21 -44 54 -96 74 -116 20 -20 46 -53 59 -73 13 -21 35 -45
50 -55 14 -9 43 -31 63 -49 100 -88 281 -120 438 -79 120 32 272 150 358 278
55 81 61 91 72 116 5 13 21 46 34 75 13 29 29 72 36 97 6 25 22 86 36 135 33
124 42 214 40 395 -2 136 -7 171 -34 283 -43 170 -67 241 -105 307 -18 30 -43
75 -57 100 -37 71 -77 126 -113 157 -19 15 -42 40 -51 55 -10 15 -38 37 -63
49 -24 12 -52 29 -61 39 -79 81 -274 119 -445 85z m241 -129 c73 -20 178 -83
248 -151 46 -44 158 -204 197 -281 22 -45 76 -222 92 -304 43 -226 7 -583 -79
-772 -8 -18 -26 -58 -39 -88 -14 -31 -32 -62 -41 -70 -10 -7 -33 -38 -53 -67
-19 -30 -47 -60 -62 -67 -14 -8 -37 -26 -51 -41 -65 -70 -180 -97 -320 -76
-64 10 -84 19 -139 59 -77 56 -173 169 -196 232 -10 25 -28 62 -42 83 -13 22
-32 58 -40 80 -23 62 -79 310 -86 382 -2 22 -8 48 -12 58 -7 17 -1 265 8 337
15 113 20 142 38 210 11 41 28 101 39 133 24 73 115 217 155 246 17 11 50 37
75 56 25 19 55 35 67 35 12 0 25 5 28 10 9 15 152 12 213 -4z"/>
<path d="M3785 7542 c-32 -16 -47 -33 -79 -93 -38 -69 -40 -79 -44 -181 -3
-66 0 -126 8 -155 6 -26 13 -56 15 -66 2 -10 14 -31 27 -48 66 -88 118 -109
203 -84 50 14 57 20 96 81 48 74 47 71 62 176 18 128 -24 277 -97 349 -17 16
-37 29 -47 29 -9 0 -36 2 -60 5 -31 4 -56 0 -84 -13z"/>
</g>
</svg>
